<svg width="36" height="36" viewBox="0 0 36 36" fill="none" xmlns="http://www.w3.org/2000/svg">
<rect x="9.58789" y="9.07057" width="16.5485" height="14.5543" rx="1.5" stroke="#F5F0EE"/>
<path d="M11.8795 8.57057C11.8795 7.97233 11.8795 6.33713 11.8795 4.58228C11.8795 2.38872 13.8737 0.593994 15.6684 0.593994C17.4631 0.593994 18.6596 0.593994 20.0555 0.593994C21.4514 0.593994 23.8444 2.38872 23.8444 4.58228C23.8444 6.33713 23.8444 7.97233 23.8444 8.57057" stroke="#F5F0EE"/>
<path d="M20.4544 14.553C20.4544 13.5559 19.8562 11.9606 17.862 11.9606C15.8679 11.9606 15.2697 13.5559 15.2697 14.553C15.2697 15.5501 15.6685 16.1483 16.4661 16.7466L16.0673 20.7349H19.4574L19.2579 16.7466C20.255 16.1483 20.4544 15.1512 20.4544 14.553Z" stroke="#F5F0EE" stroke-linejoin="round"/>
<rect x="0.5" y="26.5" width="35" height="9" rx="4.5" stroke="#F5F0EE"/>
<circle cx="8.84615" cy="30.8462" r="1.84615" fill="#F5F0EE"/>
<circle cx="17.8462" cy="30.8462" r="1.84615" fill="#F5F0EE"/>
<circle cx="26.8462" cy="30.8462" r="1.84615" fill="#F5F0EE"/>
</svg>
