<?xml version="1.0" encoding="utf-8"?>
<svg width="24" height="36" viewBox="0 0 24 36" fill="none" xmlns="http://www.w3.org/2000/svg">
<path d="M1 35.5V30.5C1.33333 29 2.7 26 5.5 26C7 26 9.5 25.5 9.5 23.5M19.5 13V17.5C19.1667 19.3333 17.3 23 12.5 23C7.7 23 5.83333 19.3333 5.5 17.5V10.5C5.5 9.5 7 9 9 10.5C10.6 11.7 12.3333 12 13 12C13 11.1667 13 9.4 13 9C15.4 11.4 18.6667 11.6667 20 11.5M15.5 24C15.6667 24.6667 16.5 26 18.5 26C21 26 23.5 28.5 23.5 30.5C23.5 32.1 23.5 34.5 23.5 35.5M16 27.5C15.6667 28 14.5 29 12.5 29C10.5 29 8.66667 27 8 26M5 15.5C4.5 15.5 3.5 15.3 3.5 14.5C3.5 13.7 3.5 9.83333 3.5 8C4 5.66667 6.4 1 12 1C16.5 1 17.5 2 18 2.5L16.5 3.5C17.8333 3.16667 21 3.3 23 6.5C22 7 21.5 8.5 21.5 9V14" stroke="#F5F0EE"/>
</svg>
